<svg width="32" height="32" viewBox="0 0 32 32" fill="none" xmlns="http://www.w3.org/2000/svg">
<path d="M31.664 0H0.213379V32H31.664V0Z" fill="white"/>
<g clip-path="url(#clip0_69_370)">
<path d="M22.4184 12.7411C22.4285 12.8833 22.4285 13.0254 22.4285 13.1675C22.4285 17.5025 19.1512 22.4975 13.1613 22.4975C11.3159 22.4975 9.60168 21.9594 8.15967 21.0254C8.42186 21.0558 8.67394 21.066 8.94622 21.066C10.4689 21.066 11.8706 20.5483 12.9899 19.665C11.558 19.6345 10.358 18.6904 9.94452 17.3909C10.1462 17.4213 10.3479 17.4416 10.5597 17.4416C10.8521 17.4416 11.1445 17.401 11.4168 17.33C9.92437 17.0254 8.80502 15.7056 8.80502 14.1117V14.0711C9.23861 14.3148 9.74285 14.467 10.2773 14.4873C9.39996 13.8985 8.82519 12.8934 8.82519 11.7563C8.82519 11.1472 8.98651 10.5888 9.26888 10.1015C10.8722 12.0914 13.2823 13.3908 15.9848 13.533C15.9344 13.2893 15.9041 13.0356 15.9041 12.7818C15.9041 10.9746 17.3562 9.50256 19.1613 9.50256C20.0991 9.50256 20.9461 9.8985 21.5411 10.5381C22.2772 10.396 22.9831 10.1218 23.6083 9.74622C23.3662 10.5077 22.852 11.1473 22.1764 11.5533C22.8318 11.4823 23.4671 11.2995 24.052 11.0457C23.6084 11.6954 23.0537 12.2741 22.4184 12.7411Z" fill="black"/>
</g>
<defs>
<clipPath id="clip0_69_370">
<rect width="15.8924" height="16" fill="white" transform="translate(8.15967 8)"/>
</clipPath>
</defs>
</svg>
